<svg width="14" height="14" viewBox="0 0 14 14" fill="none" xmlns="http://www.w3.org/2000/svg">
<path fill-rule="evenodd" clip-rule="evenodd" d="M1.5 0H12.5C13.3284 0 14 0.671573 14 1.5V12.5C14 13.3284 13.3284 14 12.5 14H1.5C0.671573 14 0 13.3284 0 12.5V1.5C0 0.671573 0.671573 0 1.5 0ZM12.5 1H10.0742V13H12.5C12.7761 13 13 12.7761 13 12.5V1.5C13 1.22386 12.7761 1 12.5 1ZM5.07461 1H9.07423V13H5.07461V1ZM4.07461 1H1.5C1.22386 1 1 1.22386 1 1.5V12.5C1 12.7761 1.22386 13 1.5 13H4.07461V1Z" fill="#005399"/>
</svg>
