<svg width="10" height="10" viewBox="0 0 10 10" fill="none" xmlns="http://www.w3.org/2000/svg">
<path d="M9.52947 0C9.8855 0 10.1023 0.391101 9.95136 0.706492L9.90991 0.777718L6.71937 5.37674L6.71939 7.8254C6.71939 8.06606 6.55324 8.26622 6.33413 8.30773L6.2497 8.31562C6.01911 8.31562 5.82734 8.14221 5.78757 7.91352L5.78 7.8254V5.21788C5.78 5.14044 5.79757 5.06449 5.83083 4.99607L5.86926 4.93038L8.60943 0.980441H1.38926L4.13074 4.93038C4.17426 4.99311 4.20271 5.06538 4.21421 5.14116L4.22 5.21788V9.50978C4.22 9.78052 4.00971 10 3.7503 10C3.51972 10 3.32794 9.82658 3.28817 9.5979L3.28061 9.50978L3.28025 5.37674L0.0900896 0.777718C-0.118713 0.476737 0.0576905 0.0641373 0.390946 0.00673015L0.470531 0H9.52947Z" fill="#234357"/>
</svg>
